<svg xmlns="http://www.w3.org/2000/svg" baseProfile="full" version="1.1" style="fill: none;" width="900px" height="765px"><path style="stroke-width: 3px; stroke-linecap: square; stroke-linejoin: round; stroke: rgb(255, 255, 255); fill: none;" d="M285,450 Q375,465 360,330 Q360,270 285,270 M360,330 Q375,255 420,270 Q420,270 375,255 Q405,225 555,255 Q435,240 405,210 M285,270 L285,270 L330,255 Q345,225 180,195 Q285,225 330,210 Q255,150 120,165 M405,210 Q495,180 600,270 M120,165 Q195,150 315,165 M600,270 Q525,195 420,180 M315,165 Q300,150 255,135 M345,150 Q315,135 255,135 M420,180 Q435,165 495,180 Q435,150 405,150 Q480,135 525,180 M345,150 Q285,120 210,105 M525,180 Q480,135 405,135 M210,105 Q285,120 345,135 M405,135 Q420,105 465,135 M345,135 Q330,105 300,105 Q330,105 375,120 M465,135 Q420,105 390,120 M375,120 Q360,105 285,75 Q360,105 405,75 M180,540 Q225,540 240,525 Q225,540 180,510 A45,30 0 0,0 225,480 M390,120 Q390,105 480,120 Q390,105 405,75 M285,450 Q255,450 225,480 Q180,555 210,585 Q210,585 225,555 M180,540 Q180,540 195,555 M195,555 Q210,585 225,555 M390,645 Q420,600 450,600 A60,75 0 0,0 510,525 Q510,495 510,495 M510,525 Q525,495 525,495 M510,495 L510,495 L525,480 M525,495 L525,495 L525,480 M390,645 L390,645 L405,645 L405,630 M375,540 Q375,495 420,480 Q420,480 450,465 M375,540 L375,540 L390,540 L375,525 M450,465 L450,465 L450,450 L450,450 L480,450 L480,450 L465,465 M450,465 L450,465 L465,465 M450,495 M435,570 M435,570 Q465,540 480,510 Q480,510 510,450 M510,450 L510,450 L510,435 L510,435 L525,420 M525,435 L525,435 L525,420 M525,435 L525,435 L510,450 M435,570 L435,570 L435,555 L435,555 L450,555 M450,390 Q465,360 405,330 M450,390 Q480,360 540,360 M450,390 L450,390 L450,390 L405,420 L405,420 L390,435 L360,465 L360,465 L375,465 L375,450 L375,450 L360,435 M390,435 L390,435 L360,435 M405,330 L405,330 L465,360 L465,360 L465,345 L465,345 L495,330 L495,330 L495,345 L495,345 L480,360 L480,360 L540,360 M225,405 Q255,375 300,360 Q345,360 375,315 Q375,315 435,330 Q405,300 405,300 Q405,300 495,330 Q435,300 420,285 Q465,300 495,315 Q495,315 405,255 Q405,255 360,255 M360,255 L360,255 L300,255 L300,255 L360,270 Q330,285 255,285 M345,300 L345,300 L255,285 M300,315 Q300,315 345,300 M300,315 L300,315 L375,315 M225,405 L225,405 L240,405 L240,390 L240,390 L240,375 L255,390 L255,390 L270,405 L270,375 M555,510 Q570,465 600,450 Q630,435 630,390 Q645,375 690,390 M630,390 Q615,360 570,375 M690,390 Q660,360 645,375 M570,375 Q600,345 630,375 M645,375 Q675,360 735,390 Q720,375 690,360 Q660,345 645,330 M600,345 Q615,345 645,330 M600,345 Q585,345 525,375 Q540,360 600,360 M555,510 L555,510 L570,510 L555,480 L555,480 L570,480 M90,510 Q75,420 120,390 Q150,375 150,360 Q135,330 75,330 M150,360 Q195,360 210,420 Q210,375 180,345 L180,345 L210,375 Q195,330 195,330 Q210,345 240,360 Q240,360 210,330 M75,330 Q120,315 150,330 L150,330 L120,315 L120,315 L165,315 M120,315 L120,315 L165,315 L120,300 Q180,315 195,300 M210,330 L210,330 L195,300 M90,510 Q105,555 75,585 L75,585 L90,585 M90,570 L90,570 L90,585 M90,570 L90,570 L90,570 L75,540 L75,540 L105,555 L105,555 L90,510 M225,675 Q255,705 255,705 Q255,705 240,660 M225,675 Q270,645 285,600 M240,660 L240,660 L225,630 L225,630 L255,645 M285,600 Q285,555 300,525 Q300,495 270,495 M300,525 Q315,510 345,540 L345,540 L330,510 M270,495 L270,495 L300,495 L300,495 L270,465 Q300,480 330,480 Q330,480 360,525 L360,525 L330,510 M495,675 Q495,630 555,585 M495,675 L495,675 L510,675 L495,660 L495,660 L480,645 L480,645 L525,645 L525,645 L510,630 M555,585 Q585,570 630,525 Q630,525 630,525 M630,525 Q690,510 735,540 Q735,540 675,495 Q705,495 825,570 Q750,510 705,480 Q750,495 795,525 Q735,480 720,435 Q660,450 600,420 Q600,420 675,465 Q615,450 540,420 Q585,450 645,480 Q600,465 570,450 Q645,495 630,525 M585,315 Q615,270 660,255 L675,255 A15,15 0 0,1 690,240 L660,240 L660,255 M585,315 L585,315 L615,300 L600,300 M720,420 Q705,345 735,330 Q765,315 765,285 Q765,285 750,270 M720,420 L720,420 L705,405 L720,390 M765,285 L765,285 L765,270 L765,270 L750,255 M750,270 L750,270 L750,255 M750,375 Q780,345 765,330 Q720,315 720,285 L720,285 L705,270 L705,270 L705,255 L705,255 L720,270 L720,270 L720,285 M750,375 L750,375 L765,375 L765,375 L765,360 M600,675 Q645,660 645,600 Q645,600 630,585 M630,585 L630,585 L645,585 L645,585 L615,570 L615,570 L660,570 L660,570 L690,585 L690,585 L660,585 L660,585 L675,600 L675,600 L645,600 M600,675 L600,675 L615,690 L615,690 L600,645 L600,645 L615,660 M510,390 Q510,345 525,330 L525,330 L510,315 M525,315 L525,315 L510,315 M525,315 L525,315 L495,300 L495,300 L540,300 L540,300 L585,330 L585,330 L540,315 L540,315 L555,330 L555,330 L525,330 M510,390 L510,390 L495,390 L495,390 L525,375 L525,375 L510,375 M60,285 Q135,285 165,255 L165,255 L165,225 L180,225 L180,225 L150,210 L150,210 L210,225 L210,225 L225,270 L225,270 L210,240 L210,240 L210,255 L165,255 M60,285 L60,285 L75,270 L75,270 L90,300 L90,300 L105,285 "/></svg>