<svg xmlns="http://www.w3.org/2000/svg" baseProfile="full" version="1.1" width="480px" height="600px" style="fill: none; width: 480px; height: 600px;"><path d="" style="stroke-width: 15; stroke-linecap: round; stroke-linejoin: round; stroke: rgb(106, 106, 106); fill: none;"/><path d="M240,300 L240,300 L240,300 " style="stroke-width: 43; stroke-linecap: round; stroke-linejoin: round; stroke: rgb(0, 0, 0); fill: none;"/><path d="M240,390 A90,90 0 0,0 330,300 A90,90 0 0,0 240,210 A90,90 0 0,0 150,300 A90,90 0 0,0 240,390 L240,390 L240,435 L240,390 L240,435 L240,390 L240,390 L240,435 M240,210 L240,210 L240,165 M240,210 L240,165 A45,45 0 0,0 285,120 A45,45 0 0,0 240,75 L240,75 L240,75 L240,75 L240,75 A45,45 0 0,0 195,120 M240,435 A45,45 0 0,0 195,480 L195,480 A45,45 0 0,0 240,525 L240,525 A45,45 0 0,0 285,480 M240,255 L240,210 M240,345 L240,390 " style="stroke-width: 25; stroke-linecap: round; stroke-linejoin: round; stroke: rgb(10, 10, 10); fill: none;"/></svg>