<?xml version="1.0" encoding="UTF-8" standalone="no"?>
<svg
   xmlns:dc="http://purl.org/dc/elements/1.1/"
   xmlns:cc="http://creativecommons.org/ns#"
   xmlns:rdf="http://www.w3.org/1999/02/22-rdf-syntax-ns#"
   xmlns:svg="http://www.w3.org/2000/svg"
   xmlns="http://www.w3.org/2000/svg"
   xmlns:sodipodi="http://sodipodi.sourceforge.net/DTD/sodipodi-0.dtd"
   xmlns:inkscape="http://www.inkscape.org/namespaces/inkscape"
   width="961"
   height="350"
   viewBox="0 0 254.26458 92.604163"
   version="1.1"
   id="svg8"
   inkscape:version="1.0.2 (e86c870879, 2021-01-15)"
   sodipodi:docname="f2f-vectores.svg"
   inkscape:export-filename="/home/ines/Documentos/LA_BEKKA/la_bekka jeckyll/media/f2f-web.png"
   inkscape:export-xdpi="96"
   inkscape:export-ydpi="96"
   style="enable-background:new">
  <defs
     id="defs2" />
  <sodipodi:namedview
     id="base"
     pagecolor="#ffffff"
     bordercolor="#393939"
     borderopacity="1"
     inkscape:pageopacity="1"
     inkscape:pageshadow="2"
     inkscape:zoom="0.71433969"
     inkscape:cx="498.80173"
     inkscape:cy="437.57409"
     inkscape:document-units="mm"
     inkscape:current-layer="layer1"
     showgrid="false"
     inkscape:snap-others="false"
     inkscape:window-width="1920"
     inkscape:window-height="1026"
     inkscape:window-x="0"
     inkscape:window-y="24"
     inkscape:window-maximized="1"
     fit-margin-top="0"
     fit-margin-left="0"
     fit-margin-right="0"
     fit-margin-bottom="0"
     borderlayer="true"
     inkscape:document-rotation="0"
     showguides="true"
     inkscape:guide-bbox="true"
     units="px" />
  <metadata
     id="metadata5">
    <rdf:RDF>
      <cc:Work
         rdf:about="">
        <dc:format>image/svg+xml</dc:format>
        <dc:type
           rdf:resource="http://purl.org/dc/dcmitype/StillImage" />
        <dc:title></dc:title>
      </cc:Work>
    </rdf:RDF>
  </metadata>
  <g
     inkscape:label="Capa 1"
     inkscape:groupmode="layer"
     id="layer1"
     transform="translate(475.84348,-507.54156)">
    <rect
       style="fill:#ffffff;stroke:none;stroke-width:4.99999;stop-color:#000000"
       id="rect886"
       width="254"
       height="92.604164"
       x="-475.71118"
       y="507.54156"
       inkscape:export-filename="/home/ines/Documentos/LA_BEKKA/la_bekka jeckyll/media/f2f-license.png"
       inkscape:export-xdpi="96"
       inkscape:export-ydpi="96" />
    <path
       inkscape:export-ydpi="96"
       inkscape:export-xdpi="96"
       inkscape:connector-curvature="0"
       id="path1649-5"
       d="m -349.59597,518.99915 c -18.81916,0.4774 -33.95962,15.91084 -33.95962,34.8445 0,19.23409 15.61026,34.84448 34.84435,34.84448 19.23409,0 34.84435,-15.6104 34.84435,-34.84448 0,-19.2341 -15.61026,-34.8445 -34.84435,-34.8445 z m -0.0329,5.98889 h 0.91872 c 15.92822,0 28.85545,12.92749 28.85545,28.85561 0,15.92812 -12.92723,28.85568 -28.85545,28.85568 -15.92824,0 -28.85552,-12.92756 -28.85552,-28.85568 0,-15.617 12.43828,-28.36381 27.9368,-28.85561 z m 0.61141,10.11008 c -6.28528,0.10289 -14.81205,4.50763 -14.81212,13.06659 h -2.98442 l 6.77158,7.58813 6.7715,-7.58813 h -2.44336 c 0.5293,-3.70187 3.7859,-6.08304 7.54745,-5.78467 h 0.4424 c 6.12761,0 8.54427,4.63404 8.7451,11.46737 0.20948,7.1313 -3.92377,11.56441 -8.7451,11.46729 -5.08879,-0.0988 -7.01685,-2.53425 -7.75833,-6.22706 h -9.08539 c 1.49523,8.50545 7.75709,13.49334 16.63957,13.50899 10.05538,0 17.32013,-8.39468 17.32013,-18.74922 0,-11.05745 -7.26224,-18.74929 -17.32013,-18.74929 h -0.88473 c -0.0716,0.004 -0.13295,-10e-4 -0.20415,0 z"
       style="fill:#000000;fill-opacity:1;fill-rule:nonzero;stroke:none;stroke-width:40.5518;stroke-linecap:butt;stroke-linejoin:round;stroke-miterlimit:4;stroke-dasharray:none;stroke-dashoffset:0;stroke-opacity:1" />
    <path
       id="path1655-6"
       style="fill:#000000;fill-opacity:1;fill-rule:nonzero;stroke:none;stroke-width:40.5518;stroke-linecap:butt;stroke-linejoin:round;stroke-miterlimit:4;stroke-dasharray:none;stroke-dashoffset:0;stroke-opacity:1"
       d="m -269.26614,518.99909 c -18.81919,0.47739 -33.95967,15.91087 -33.95967,34.84455 0,19.23412 15.61031,34.84456 34.84442,34.84456 19.23411,0 34.84438,-15.61044 34.84438,-34.84456 0,-19.23411 -15.61027,-34.84455 -34.84438,-34.84455 -0.30043,0 -0.58601,0 -0.88475,0 z m -0.0329,5.98886 c 0.30867,0 0.60766,0 0.91875,0 15.92823,0 28.85553,12.92754 28.85553,28.85569 0,15.92814 -12.9273,28.85569 -28.85553,28.85569 -15.92828,0 -28.85554,-12.92755 -28.85554,-28.85569 0,-15.61702 12.43826,-28.3639 27.93679,-28.85569 z" />
    <path
       id="path903"
       style="color:#000000;font-style:normal;font-variant:normal;font-weight:normal;font-stretch:normal;font-size:medium;line-height:normal;font-family:sans-serif;font-variant-ligatures:normal;font-variant-position:normal;font-variant-caps:normal;font-variant-numeric:normal;font-variant-alternates:normal;font-variant-east-asian:normal;font-feature-settings:normal;font-variation-settings:normal;text-indent:0;text-align:start;text-decoration:none;text-decoration-line:none;text-decoration-style:solid;text-decoration-color:#000000;letter-spacing:normal;word-spacing:normal;text-transform:none;writing-mode:lr-tb;direction:ltr;text-orientation:mixed;dominant-baseline:auto;baseline-shift:baseline;text-anchor:start;white-space:normal;shape-padding:0;shape-margin:0;inline-size:0;clip-rule:nonzero;display:inline;overflow:visible;visibility:visible;isolation:auto;mix-blend-mode:normal;color-interpolation:sRGB;color-interpolation-filters:linearRGB;solid-color:#000000;solid-opacity:1;vector-effect:none;fill:#000000;fill-opacity:1;fill-rule:nonzero;stroke:none;stroke-width:0;stroke-linecap:butt;stroke-linejoin:round;stroke-miterlimit:4;stroke-dasharray:none;stroke-dashoffset:0;stroke-opacity:1;paint-order:markers fill stroke;color-rendering:auto;image-rendering:auto;shape-rendering:auto;text-rendering:auto;enable-background:accumulate;stop-color:#000000"
       transform="matrix(0.26458333,0,0,0.26458333,-475.84348,507.54156)"
       d="m 237.5918,107.03711 -2.70313,5.61328 c -6.91048,1.28738 -12.14258,7.33882 -12.14258,14.62305 0,8.20913 6.66113,14.88281 14.88282,14.88281 8.22168,0 14.88476,-6.67368 14.88476,-14.88281 0,-7.29253 -5.24579,-13.349 -12.16797,-14.62696 z m -59.08985,3.78125 c -6.94563,0 -12.13081,5.10694 -14.23242,14.00976 -0.4278,1.82102 -3.21994,6.72732 -4.25976,8.46485 -0.19049,0.31808 -0.20574,0.71743 -0.0391,1.05078 1.09913,2.20033 5.68865,9.38281 18.53125,9.38281 12.84265,0 17.42979,-7.18374 18.53125,-9.38672 0.16668,-0.33354 0.1525,-0.73065 -0.041,-1.05078 -1.03756,-1.73764 -3.83189,-6.63968 -4.25977,-8.46289 -2.10145,-8.90237 -7.28668,-14.00781 -14.23047,-14.00781 z m -59.98633,1.57031 c -8.22168,0 -14.88476,6.66309 -14.88476,14.88477 0,8.20913 6.66308,14.88281 14.88476,14.88281 8.22169,0 14.88477,-6.67368 14.88477,-14.88281 0,-8.22168 -6.66308,-14.88477 -14.88477,-14.88477 z m -16.19335,34.20508 c -1.50857,0 -4.386308,-0.1247 -6.523442,2 -2.124586,2.13713 -1.987452,5.05256 -2,6.52344 0.01134,5.56909 0,40.94531 0,40.94531 h 9.316402 v 49.48242 h 30.79883 V 196.0625 h 9.31641 c 0,0 -0.0113,-35.37622 0,-40.94531 -0.0113,-1.47088 0.12665,-4.38631 -1.99805,-6.52344 -2.13713,-2.12455 -5.01683,-2 -6.52539,-2 -1.52115,0.0113 -30.86362,0.0113 -32.38476,0 z m 59.98828,0 c -1.50856,0 -4.38826,-0.1247 -6.52539,2 -2.12459,2.13713 -1.9855,5.05256 -1.99805,6.52344 0.0113,5.56909 0,61.02734 0,61.02734 h 9.31445 v 29.40039 h 30.80078 v -29.40039 h 9.31446 c 0,0 -0.0113,-55.45825 0,-61.02734 -0.0113,-1.47088 0.12665,-4.38631 -1.99805,-6.52344 -2.13713,-2.12455 -5.01683,-2 -6.52539,-2 -1.52115,0.0113 -30.86167,0.0113 -32.38281,0 z m 59.12695,0 c -1.50856,0 -4.3863,-0.1247 -6.52344,2 -2.12458,2.13713 -1.98745,5.05256 -2,6.52344 0.0113,5.56909 0,27.95312 0,27.95312 h 9.31641 v 62.47461 h 30.79883 v -62.47461 h 9.3164 c 0,0 -0.0113,-22.38403 0,-27.95312 -0.0113,-1.47088 0.1247,-4.38631 -2,-6.52344 -2.13713,-2.12455 -5.01487,-2 -6.52343,-2 -1.52115,0.0113 -30.86362,0.0113 -32.38477,0 z M 173.54737,43.312253 C 102.42682,45.112782 45.196045,103.45281 45.196045,175.0074 c 0,72.69592 58.999185,131.6951 131.695145,131.6951 72.696,0 131.69514,-58.99918 131.69514,-131.6951 0,-72.69597 -58.99914,-131.695147 -131.69514,-131.695147 -1.14142,0 -2.21851,-0.03402 -3.34382,0 z m -0.12851,22.635099 c 1.17358,-0.03402 2.2989,0 3.47244,0 60.20489,0 109.06005,48.855158 109.06005,109.060048 0,60.20489 -48.85516,109.06001 -109.06005,109.06001 -60.20485,0 -109.060042,-48.85512 -109.060042,-109.06001 0,-59.03135 47.006442,-107.195267 105.587602,-109.060048 z" />
    <g
       id="path966"
       style="opacity:1;fill:#000000">
      <path
         id="path937"
         style="color:#000000;font-style:normal;font-variant:normal;font-weight:normal;font-stretch:normal;font-size:medium;line-height:normal;font-family:sans-serif;font-variant-ligatures:normal;font-variant-position:normal;font-variant-caps:normal;font-variant-numeric:normal;font-variant-alternates:normal;font-variant-east-asian:normal;font-feature-settings:normal;font-variation-settings:normal;text-indent:0;text-align:start;text-decoration:none;text-decoration-line:none;text-decoration-style:solid;text-decoration-color:#000000;letter-spacing:normal;word-spacing:normal;text-transform:none;writing-mode:lr-tb;direction:ltr;text-orientation:mixed;dominant-baseline:auto;baseline-shift:baseline;text-anchor:start;white-space:normal;shape-padding:0;shape-margin:0;inline-size:0;clip-rule:nonzero;display:inline;overflow:visible;visibility:visible;isolation:auto;mix-blend-mode:normal;color-interpolation:sRGB;color-interpolation-filters:linearRGB;solid-color:#000000;solid-opacity:1;vector-effect:none;fill:#000000;fill-opacity:1;fill-rule:nonzero;stroke:none;stroke-width:3.77953;stroke-linecap:butt;stroke-linejoin:miter;stroke-miterlimit:4;stroke-dasharray:none;stroke-dashoffset:0;stroke-opacity:1;color-rendering:auto;image-rendering:auto;shape-rendering:auto;text-rendering:auto;enable-background:accumulate;stop-color:#000000;stop-opacity:1"
         d="M 740.94141 110.40039 L 703.10156 110.40234 L 703.10156 148.24023 L 719.3418 148.24023 L 719.3418 138.59375 L 728.80469 148.04883 L 722.05078 154.79688 L 734.00195 166.74805 L 740.75 160 L 746.30859 165.55078 C 742.98798 171.66538 740.89648 178.57859 740.89648 186.01367 C 740.89648 207.00596 756.07587 224.21265 775.99023 228.05469 L 775.99023 242.67773 L 764.00977 242.67773 L 764.00977 258.91797 L 775.99023 258.91797 L 775.99023 272.41211 L 792.23047 272.41211 L 792.23047 258.91797 L 804.21094 258.91797 L 804.21094 242.67773 L 792.23047 242.67773 L 792.23047 228.05469 C 812.14174 224.20909 827.32422 207.00309 827.32422 186.01367 C 827.32422 178.58104 825.22502 171.67198 821.90625 165.55859 L 848.87109 138.59375 L 848.87109 148.24023 L 865.11133 148.24023 L 865.11133 110.4082 L 827.2793 110.40039 L 827.2793 113.125 L 827.2793 126.64062 L 836.92773 126.64062 L 810.92188 152.64844 C 803.5256 146.68597 794.34515 142.80078 784.11133 142.80078 C 773.87977 142.80078 764.69434 146.68831 757.29883 152.64844 L 752.70117 148.04883 L 759.44727 141.30273 L 747.49609 129.35742 L 740.75 136.10547 L 731.28516 126.64062 L 740.94141 126.64062 L 740.94141 110.40039 z M 784.11133 161.73438 C 797.54033 161.73438 808.38281 172.58467 808.38281 186.01367 C 808.38281 199.44271 797.54033 210.28516 784.11133 210.28516 C 770.68229 210.28516 759.83984 199.44271 759.83984 186.01367 C 759.83984 172.58467 770.68229 161.73438 784.11133 161.73438 z "
         transform="matrix(0.26458333,0,0,0.26458333,-475.84348,507.54156)" />
    </g>
  </g>
</svg>
