<?xml version="1.0" encoding="UTF-8" standalone="no"?>
<!-- Created with Inkscape (http://www.inkscape.org/) -->

<svg
   xmlns:dc="http://purl.org/dc/elements/1.1/"
   xmlns:cc="http://creativecommons.org/ns#"
   xmlns:rdf="http://www.w3.org/1999/02/22-rdf-syntax-ns#"
   xmlns:svg="http://www.w3.org/2000/svg"
   xmlns="http://www.w3.org/2000/svg"
   xmlns:sodipodi="http://sodipodi.sourceforge.net/DTD/sodipodi-0.dtd"
   xmlns:inkscape="http://www.inkscape.org/namespaces/inkscape"
   width="696.39752"
   height="731.42224"
   id="svg2"
   version="1.1"
   inkscape:version="0.48.4 r9939"
   sodipodi:docname="transfeminismo.svg">
  <defs
     id="defs4" />
  <sodipodi:namedview
     id="base"
     pagecolor="#ffffff"
     bordercolor="#666666"
     borderopacity="1.0"
     inkscape:pageopacity="0.0"
     inkscape:pageshadow="2"
     inkscape:zoom="0.63641737"
     inkscape:cx="322.55767"
     inkscape:cy="323.5633"
     inkscape:document-units="px"
     inkscape:current-layer="layer1"
     showgrid="false"
     inkscape:window-width="1366"
     inkscape:window-height="746"
     inkscape:window-x="-8"
     inkscape:window-y="-8"
     inkscape:window-maximized="1"
     fit-margin-top="0"
     fit-margin-left="0"
     fit-margin-right="0"
     fit-margin-bottom="0" />
  <metadata
     id="metadata7">
    <rdf:RDF>
      <cc:Work
         rdf:about="">
        <dc:format>image/svg+xml</dc:format>
        <dc:type
           rdf:resource="http://purl.org/dc/dcmitype/StillImage" />
        <dc:title />
      </cc:Work>
    </rdf:RDF>
  </metadata>
  <g
     inkscape:label="Camada 1"
     inkscape:groupmode="layer"
     id="layer1"
     transform="translate(-1.8012462,-336.65105)">
    <path
       style="fill:#000000"
       d="m 312.9696,1029.1027 0,-38.97083 -22.45317,-0.81082 -22.45315,-0.8108 -0.43143,-32.10442 -0.4314,-32.10443 22.10129,-0.82637 c 12.1557,-0.45451 22.76781,-1.89546 23.58247,-3.20212 0.81467,-1.30665 1.09162,-15.42779 0.61546,-31.38031 l -0.86576,-29.00457 -14.48853,-4.98462 C 246.00292,836.96437 207.07447,802.64528 186.8659,756.8001 c -12.38169,-28.08907 -16.27242,-45.1793 -16.27242,-71.47746 0,-30.05674 7.58386,-60.56174 21.377,-85.98594 l 9.69971,-17.87904 -16.14888,-16.31912 c -8.88189,-8.97559 -17.44448,-16.3078 -19.02798,-16.29387 -1.58346,0.014 -5.84705,3.78272 -9.47459,8.37507 -3.62755,4.59235 -8.16145,8.34973 -10.07534,8.34973 -1.91388,0 -14.02101,-9.93423 -26.9047,-22.07602 L 96.613747,521.41741 107.4953,510.15072 118.37683,498.88408 103.72946,481.97637 c -8.056065,-9.2992 -14.954678,-16.90766 -15.330301,-16.90766 -0.375613,0 -8.540724,7.66507 -18.144692,17.03353 C 60.650501,491.47066 51.76755,498.06603 50.514551,496.7586 49.261562,495.45114 41.071699,470.51249 32.314867,441.33935 23.558065,412.16621 12.856326,377.63992 8.5332286,364.61427 4.2101594,351.58863 1.2233329,340.38104 1.8958221,339.70853 2.9776853,338.6267 67.259554,356.7823 109.17634,370.00856 c 8.44486,2.66466 23.83405,7.11399 34.1982,9.88734 10.36413,2.77338 18.84388,6.25017 18.84388,7.72617 0,1.476 -7.76075,10.16058 -17.24613,19.29906 l -17.24616,16.61537 15.7894,15.7894 15.7894,15.78939 9.89799,-9.59351 9.89801,-9.59355 24.27497,24.27496 24.27495,24.27494 -9.59473,9.89924 -9.59472,9.89926 16.99876,16.99873 16.99878,16.99879 21.62776,-11.59447 c 26.17516,-14.03222 50.67428,-20.34403 82.69144,-21.30414 32.24983,-0.96706 69.62754,9.03993 92.80725,24.84695 l 7.96909,5.43435 60.37534,-60.37531 60.3753,-60.37533 -15.13874,-15.32916 c -8.32632,-8.43104 -14.58422,-15.84064 -13.90649,-16.46583 1.77842,-1.64042 153.74771,-46.46016 157.53148,-46.46016 2.35452,0 1.62077,8.10216 -1.20429,13.2984 -1.44956,2.66617 -5.94076,16.15391 -9.98045,29.97277 -6.2481,21.37323 -12.24101,41.07512 -32.48099,106.78207 -1.53712,4.99016 -3.60314,9.07299 -4.59108,9.07299 -0.98798,0 -8.76581,-6.89676 -17.28408,-15.32611 l -15.4877,-15.32612 -59.3165,59.36464 -59.31648,59.36463 9.58207,19.04497 c 31.98288,63.56788 24.7251,134.36167 -19.69842,192.14255 -20.86089,27.13337 -49.23691,46.49015 -85.49526,58.32079 l -18.93138,6.17708 0.78542,30.98502 0.7854,30.98501 23.72935,1.39584 23.72936,1.39583 0.85026,32.69142 0.85029,32.69143 -24.57963,0.80883 -24.57963,0.80885 -0.7767,38.38576 -0.77669,38.3856 -34.81734,0 -34.8173,0 0,-38.9706 z m -1.06939,-254.14008 c -1.05708,-6.61052 -6.25386,-17.05722 -12.76419,-25.65885 -16.72523,-22.09784 -17.71181,-45.65575 -2.20789,-52.7198 5.27431,-2.40313 9.98215,-1.14965 26.68426,7.10475 24.11975,11.9203 34.07832,14.29348 42.05821,10.02276 6.53211,-3.49587 8.07075,-11.34928 2.22352,-11.34928 -2.03548,0 -6.58536,-3.07042 -10.11089,-6.82311 -5.21832,-5.55467 -6.06376,-8.66857 -4.54763,-16.75012 1.02426,-5.45988 2.61859,-9.92703 3.54294,-9.92703 0.92437,0 8.89485,2.63042 17.71218,5.84538 l 16.03155,5.8454 16.75085,-6.10767 c 19.98255,-7.28598 26.36749,-5.24242 31.41609,10.05492 2.9697,8.9983 2.68666,10.9001 -2.59968,17.4695 -3.26269,4.05457 -9.31052,13.94739 -13.43966,21.98406 -5.68729,11.06926 -10.24842,15.90221 -18.81233,19.93328 -14.70275,6.92065 -20.93916,14.09595 -22.9336,26.3863 -1.4504,8.93787 -0.88733,10.16166 5.402,11.74021 9.41315,2.36254 20.69596,-3.83954 37.83167,-20.79585 34.25889,-33.90029 42.60212,-85.00634 20.90046,-128.02489 -14.80806,-29.35355 -36.40166,-46.71752 -68.83728,-55.35382 -68.66606,-18.28304 -136.0034,33.12083 -136.28153,104.03439 -0.15858,40.43931 17.84645,72.42303 54.59601,96.98296 15.84718,10.59076 19.56781,9.75753 17.38494,-3.89349 z m -31.82312,-84.52375 c -4.32684,-5.35881 -1.61128,-56.20552 3.533,-66.15353 2.40772,-4.65603 5.49779,-8.46548 6.86679,-8.46548 4.66612,0 12.72349,26.45142 12.37717,40.63283 -0.53833,22.04433 -14.99818,43.62024 -22.77696,33.98618 z m 39.37284,-18.17182 c -1.94863,-1.23928 -3.15043,-8.33757 -2.94685,-17.40528 0.23702,-10.55995 -1.22742,-17.70045 -4.71842,-23.00616 -6.12104,-9.30288 -3.68174,-17.06281 10.74333,-34.17679 l 9.40811,-11.16182 6.21608,5.57844 c 5.80626,5.21067 6.1136,7.23491 4.66155,30.70365 -1.6838,27.21494 -5.72315,42.66693 -12.58866,48.15661 -5.03303,4.02442 -6.27211,4.17525 -10.77514,1.31135 z m 77.53742,-5.97262 c -3.13744,-1.98634 -3.54723,-7.69267 -2.05182,-28.57205 2.96078,-41.33841 5.26579,-44.99578 20.24028,-32.11523 9.70504,8.34793 10.23912,25.14504 1.43118,45.01115 -7.65654,17.26909 -11.83285,20.60597 -19.61964,15.67613 z m -41.58411,-11.94926 c -3.68294,-3.68294 -4.70382,-49.07479 -1.21351,-53.95663 3.61741,-5.05963 25.31868,-13.26007 30.16715,-11.39956 4.96438,1.90502 4.70832,7.3898 -1.75107,37.50888 -5.34073,24.90305 -17.59851,37.45137 -27.20257,27.84731 z"
       id="path3027"
       inkscape:connector-curvature="0" />
  </g>
</svg>
