<svg xmlns="http://www.w3.org/2000/svg" baseProfile="full" version="1.1" width="525px" height="525px" style="fill: none; width: 525px; height: 525px;">
  <path transform="translate(-400,0)"  d="M570,165 A30,105 0 0,1 540,270 A105,135 0 0,1 645,405 M600,120 A30,75 0 0,0 630,195 L630,195 A15,15 0 0,0 645,210 L660,210 A15,15 0 0,0 675,195 M600,120 A30,45 0 0,0 570,165 M540,270 L540,270 L510,285 L480,315 L465,345 L465,375 L465,390 L480,420 L510,435 L540,435 A30,15 0 0,0 570,420 A15,15 0 0,0 585,405 L585,375 A15,30 0 0,0 570,345 A30,15 0 0,0 540,330 A30,15 0 0,0 510,345 A15,30 0 0,0 495,375 A15,30 0 0,0 510,405 L540,405 A15,15 0 0,0 555,390 L555,375 A15,15 0 0,0 540,360 A15,15 0 0,0 525,375 L525,375 L525,390 L540,390 L540,375 M645,270 A15,15 0 0,1 630,285 L615,285 A15,15 0 0,1 600,270 L600,255 L600,240 A15,15 0 0,1 615,225 L630,225 A15,15 0 0,1 645,240 M600,120 A15,15 0 0,0 615,105 A15,15 0 0,0 630,90 L630,75 A15,30 0 0,0 615,45 A15,15 0 0,0 600,30 L585,30 A15,15 0 0,0 570,45 L570,60 A15,15 0 0,0 585,75 L600,75 L600,60 M540,270 A30,15 0 0,1 510,255 A30,15 0 0,1 480,240 A30,30 0 0,1 450,210 A15,30 0 0,1 435,180 L435,150 A15,30 0 0,1 450,120 A30,15 0 0,1 480,105 A30,15 0 0,1 510,120 A15,15 0 0,1 525,135 A15,30 0 0,1 540,165 L540,180 A15,15 0 0,1 525,195 A15,15 0 0,1 510,210 L495,210 L480,210 A15,15 0 0,1 465,195 L465,165 A15,15 0 0,1 480,150 L495,150 A15,15 0 0,1 510,165 L510,180 A15,15 0 0,1 495,195 A15,15 0 0,1 480,180 A15,15 0 0,1 495,165 L495,165 L495,180 M645,405 A15,30 0 0,0 660,435 A15,15 0 0,0 675,450 A30,15 0 0,0 705,465 L720,465 L720,450 L705,450 M645,270 L645,270 L645,390 M705,60 L705,45 L720,45 L720,60 M645,240 L645,240 L645,210 M630,255 L630,270 L615,270 L615,255 L615,240 L630,240 L630,240 L630,255 M735,165 A30,105 0 0,0 765,270 A105,135 0 0,0 660,405 M705,120 A30,75 0 0,1 675,195 L675,195 A15,15 0 0,1 660,210 L645,210 A15,15 0 0,1 630,195 M705,120 A30,45 0 0,1 735,165 M765,270 L765,270 L795,285 L825,315 L840,345 L840,375 L840,390 L825,420 L795,435 L765,435 A30,15 0 0,1 735,420 A15,15 0 0,1 720,405 L720,375 A15,30 0 0,1 735,345 A30,15 0 0,1 765,330 A30,15 0 0,1 795,345 A15,30 0 0,1 810,375 A15,30 0 0,1 795,405 L765,405 A15,15 0 0,1 750,390 L750,375 A15,15 0 0,1 765,360 A15,15 0 0,1 780,375 L780,375 L780,390 L765,390 L765,375 M660,270 A15,15 0 0,0 675,285 L690,285 A15,15 0 0,0 705,270 L705,255 L705,240 A15,15 0 0,0 690,225 L675,225 A15,15 0 0,0 660,240 M705,120 A15,15 0 0,1 690,105 A15,15 0 0,1 675,90 L675,75 A15,30 0 0,1 690,45 A15,15 0 0,1 705,30 L720,30 A15,15 0 0,1 735,45 L735,60 A15,15 0 0,1 720,75 L705,75 L705,60 M765,270 A30,15 0 0,0 795,255 A30,15 0 0,0 825,240 A30,30 0 0,0 855,210 A15,30 0 0,0 870,180 L870,150 A15,30 0 0,0 855,120 A30,15 0 0,0 825,105 A30,15 0 0,0 795,120 A15,15 0 0,0 780,135 A15,30 0 0,0 765,165 L765,180 A15,15 0 0,0 780,195 A15,15 0 0,0 795,210 L810,210 L825,210 A15,15 0 0,0 840,195 L840,165 A15,15 0 0,0 825,150 L810,150 A15,15 0 0,0 795,165 L795,180 A15,15 0 0,0 810,195 A15,15 0 0,0 825,180 A15,15 0 0,0 810,165 L810,165 L810,180 M660,405 A15,30 0 0,1 645,435 A15,15 0 0,1 630,450 A30,15 0 0,1 600,465 L585,465 L585,450 L600,450 M660,270 L660,270 L660,390 M600,60 L600,45 L585,45 L585,60 M660,240 L660,240 L660,210 M675,255 L675,270 L690,270 L690,255 L690,240 L675,240 L675,240 L675,255 "
style="stroke-width: 11; stroke-linecap: square; stroke-linejoin: miter; stroke: rgb(10, 10, 10); fill: none;"/>
</svg>