<svg xmlns="http://www.w3.org/2000/svg" baseProfile="full" version="1.1" width="1170px" height="630px" style="fill: none; width: 1170px; height: 630px;"><path d="M120,120 L120,120 L120,120 L150,120 L150,120 L150,150 L150,150 L180,180 L180,180 L210,180 L210,180 L210,210 L210,210 L180,210 L180,210 L180,180 L180,180 L210,180 M120,120 L120,120 L120,150 L120,150 L150,150 M90,60 L90,60 L60,60 M60,90 L60,90 L60,60 L60,60 L120,120 L120,120 L150,120 M180,210 L180,210 L150,240 L150,240 L150,240 L150,240 L120,240 L120,240 L120,270 L120,270 L150,270 L150,270 L150,240 M120,240 L120,240 L90,210 L90,210 L60,210 L60,210 L60,180 L60,180 L90,180 L90,180 L90,210 M90,300 L90,300 L90,300 L90,330 L90,330 L60,330 L60,330 L60,330 L90,330 L90,330 L180,420 L180,420 L180,450 L180,450 L210,450 L210,450 L210,420 L210,420 L240,390 L240,390 L270,390 L270,390 L270,360 L270,360 L240,360 L240,360 L240,390 L240,390 L270,390 M60,300 L60,300 L90,300 M60,300 L60,300 L60,330 M120,270 L120,270 L150,270 L150,270 L240,360 M60,180 L60,180 L90,180 M60,210 L60,210 L90,210 M120,150 L120,150 L150,150 M180,210 L180,210 L210,210 M210,420 L210,420 L180,420 M180,450 L180,450 L210,450 L210,450 L300,540 L300,540 L330,540 L330,540 L330,570 L330,570 L300,570 L300,570 L300,540 L300,540 L330,540 M180,450 L180,450 L90,540 L90,540 L60,540 L60,540 L60,570 L60,570 L90,570 M90,540 L90,540 L90,570 M60,540 L60,540 L90,540 M60,570 L60,570 L90,570 M75,555 L75,555 L75,555 M330,570 L330,570 L300,570 L330,570 M300,570 L300,570 L330,570 M240,360 L240,360 L270,360 L270,360 L360,270 L360,270 L390,270 M300,420 L300,420 L300,450 L300,450 L330,450 L330,450 L360,480 L360,480 L360,510 L360,510 L330,540 M300,420 L300,420 L330,420 L330,420 L330,450 M300,450 L300,450 L330,450 M330,420 L330,420 L330,450 M360,510 L360,510 L390,510 L390,510 L390,480 L390,480 L420,450 L420,450 L420,420 L420,420 L450,420 L450,420 L450,450 L450,450 L540,540 L540,540 L570,540 M360,480 L360,480 L390,480 M390,510 L390,510 L420,540 L420,540 L450,540 L450,540 L450,570 L450,570 L450,540 M420,540 L420,540 L420,570 L420,570 L450,570 M420,570 L420,570 L450,570 M420,450 L420,450 L450,450 M420,420 L420,420 L450,420 L450,420 L480,390 L480,390 L480,360 L480,360 L510,360 L510,360 L510,390 L510,390 L480,390 L480,390 L510,390 L510,390 L660,540 L660,540 L690,540 L690,540 L690,570 M420,420 L420,420 L390,390 L390,390 L360,390 L360,390 L360,360 L360,360 L390,360 L390,360 L390,390 M360,390 L360,390 L390,390 M360,360 L360,360 L390,360 M480,360 L480,360 L510,360 M540,540 L540,540 L540,570 L540,570 L570,570 L570,570 L570,540 M540,570 L540,570 L570,570 M660,540 L660,540 L660,570 L660,570 L690,570 M660,540 L660,540 L690,540 L690,540 L720,510 L720,510 L750,510 M360,270 L360,270 L360,240 L360,240 L390,240 L390,240 L390,270 M360,240 L360,240 L390,240 L390,240 L420,210 L420,210 L450,210 L450,210 L450,180 L450,180 L420,180 L420,180 L420,210 L420,210 L450,210 L450,210 L480,240 L480,240 L510,240 L510,240 L540,210 L540,210 L570,210 L570,210 L570,180 L570,180 L600,150 L600,150 L630,150 M360,240 L360,240 L270,150 L240,150 L240,150 L240,120 L240,120 L270,120 L270,120 L270,150 M240,150 L270,150 M240,120 L270,120 L270,120 L300,90 L300,90 L330,90 L330,90 L330,60 L330,60 L300,60 L300,60 L300,90 L300,90 L330,90 M300,60 L300,60 L330,60 M420,180 L420,180 L450,180 M660,570 L660,570 L690,570 M720,510 L720,510 L720,480 L720,480 L750,480 L750,480 L750,510 M720,480 L720,480 L750,480 M720,480 L720,480 L630,390 M600,390 L600,390 L630,390 M600,390 L600,390 L600,360 L600,360 L630,360 L630,360 L630,390 M600,360 L600,360 L630,360 M540,330 L540,330 L570,330 M540,330 L540,330 L540,300 L540,300 L570,300 L570,300 L570,330 M540,300 L540,300 L570,300 M480,270 L480,270 L510,270 L510,270 L510,240 M480,270 L480,270 L480,240 M480,270 L480,270 L510,270 L510,270 L540,300 M540,210 L540,210 L540,180 L540,180 L570,180 M540,180 L540,180 L570,180 M540,210 L540,210 L570,210 M540,180 L540,180 L450,90 M420,90 L420,90 L450,90 M420,60 L420,60 L450,60 L450,60 L450,90 M420,60 L420,60 L420,90 M420,60 L420,60 L450,60 M600,120 L600,120 L630,120 L630,120 L630,150 M600,120 L600,120 L600,150 M630,120 L630,120 L660,90 L660,90 L690,90 L690,90 L690,60 L690,60 L660,60 L660,60 L660,90 L660,90 L690,90 M600,120 L600,120 L570,90 L570,90 L540,90 L540,90 L540,60 L540,60 L570,60 L570,60 L570,90 M540,60 L540,60 L570,60 M540,90 L540,90 L570,90 M660,60 L660,60 L690,60 M600,270 L600,270 L600,240 L600,240 L630,240 L630,240 L780,90 L780,90 L780,60 L780,60 L810,60 L810,60 L810,90 L810,90 L780,90 L780,90 L810,90 M600,270 L600,270 L630,270 L630,270 L630,240 M600,240 L600,240 L630,240 L600,240 L630,240 M630,270 L630,270 L660,300 L660,300 L660,330 L660,330 L690,330 L690,330 M660,300 L660,300 L690,300 L690,300 L690,330 M660,330 L660,330 L690,330 M660,300 L660,300 L690,300 L690,300 L780,210 L780,210 L810,210 L810,210 L810,180 L810,180 L780,180 L780,180 L780,210 L780,210 L810,210 M780,60 L780,60 L810,60 M780,180 L780,180 L810,180 L810,180 L840,150 L840,150 L870,150 L870,150 L870,120 L870,120 L840,120 L840,120 L840,150 L840,150 L870,150 M840,120 L840,120 L870,120 M900,180 L900,180 L870,150 L870,150 M900,180 L900,180 L900,180 L900,210 L930,210 L930,180 L900,180 L900,180 L930,180 L930,180 L960,150 L960,150 L990,150 M900,210 L900,210 L930,210 M960,150 L960,150 L960,120 L960,120 L990,120 L990,120 L990,150 M960,120 L960,120 L990,120 L990,120 L1050,60 L1050,60 L1020,60 M1050,60 L1050,60 L1050,90 M1020,180 L1020,180 L1050,180 L1050,180 L1080,150 L1080,150 L1110,150 L1110,150 L1110,120 M1050,210 L1050,210 L1050,180 M1020,180 L1020,180 L1020,210 L1020,210 L1050,210 L1050,210 L1080,240 L1080,240 L1110,240 L1110,240 L1110,270 L1110,270 L1080,270 L1080,270 L1080,240 L1080,240 L1110,240 M1020,210 L1020,210 L1050,210 M1080,120 L1080,120 L1110,120 M1080,120 L1080,120 L1080,150 L1080,150 L1110,150 M1080,270 L1080,270 L1080,270 L1110,270 M1020,210 L1020,210 L990,240 L990,240 L960,240 L960,240 L960,270 L960,270 L990,270 L990,270 L990,240 M960,240 L960,240 L990,240 M960,270 L960,270 L990,270 L990,270 L1080,360 L1080,360 L1110,360 L1110,360 L1110,390 L1110,390 L1080,390 L1080,390 L1080,360 L1080,360 L1110,360 M1080,390 L1080,390 L1110,390 M960,270 L960,270 L930,300 L930,300 L900,300 L900,300 L900,330 L900,330 L930,330 L930,330 L930,300 M900,300 L900,300 L930,300 M900,330 L900,330 L930,330 L930,330 L1080,480 L1080,480 L1110,480 M900,300 L900,300 L810,210 M780,450 L780,450 L780,420 L780,420 L690,330 M780,420 L780,420 L810,420 L810,420 L810,450 L810,450 L900,540 L900,540 L900,540 L930,540 L930,540 L930,570 M780,450 L780,450 L810,450 M780,420 L780,420 L810,420 L810,420 L840,390 L840,390 L840,360 L840,360 L870,360 L870,360 L870,390 L870,390 L900,420 L900,420 L930,420 M840,390 L840,390 L870,390 M840,360 L840,360 L870,360 M840,360 L840,360 L810,330 L810,330 L780,330 L780,330 L780,300 L780,300 L810,300 L810,300 L810,330 M780,330 L780,330 L810,330 M780,300 L780,300 L810,300 M900,420 L900,420 L900,450 L900,450 L930,450 L930,450 L930,420 M900,450 L900,450 L930,450 M960,480 L960,480 L960,480 L990,480 M960,480 L960,480 L960,510 L960,510 L990,510 L990,510 L990,480 M960,510 L960,510 L990,510 L990,510 L1050,570 L1050,570 L1050,540 M900,540 L900,540 L900,570 L900,570 L930,570 M900,570 L900,570 L930,570 M900,540 L900,540 L930,540 L930,540 L960,510 M1080,480 L1080,480 L1080,510 L1080,510 L1110,510 L1110,510 L1110,480 M1080,510 L1080,510 L1110,510 M1020,570 L1020,570 L1050,570 " style="stroke-width: 15; stroke-linecap: square; stroke-linejoin: round; stroke: #000; fill: none;"/></svg>