<svg xmlns="http://www.w3.org/2000/svg" baseProfile="full" version="1.1" width="512px" height="512px" style="fill:none;width:512px;height:512px;"><path d="M105,480 A105,105 0 0,0 210,375 A105,105 0 0,0 315,270 M210,375 Q165,360 180,330 Q210,285 210,375 M315,270 Q315,270 315,270 Q330,210 300,180 M315,270 Q315,270 315,270 Q315,270 315,270 Q360,210 405,210 Q405,210 390,180 Q390,180 390,180 Q420,165 510,150 M300,180 L300,180 L330,165 L330,165 Q315,135 270,90 M510,150 L510,150 L420,120 L420,120 L420,75 L375,105 M270,90 L270,90 L375,105 M105,480 Q75,480 60,525 L60,525 L75,525 L75,525 L60,540 M60,525 L60,525 L45,525 L30,540 " style="stroke-width:6;stroke-linecap:round;stroke-linejoin:round;stroke:#e48;fill:none;"/></svg>