<svg xmlns="http://www.w3.org/2000/svg" baseProfile="full" version="1.1" width="600px" height="600px" style="fill: none; width: 600px; height: 600px;"><path d="M150,255 Q225,60 420,105 M255,105 Q345,270 360,300 M315,345 Q270,135 435,285 M360,300 Q405,390 390,435 Q360,510 435,495 Q480,480 510,510 M495,525 A15,15 0 0,1 510,540 A15,15 0 0,1 525,525 A15,15 0 0,1 540,510 A15,15 0 0,1 525,495 M495,525 Q510,510 525,495 " style="stroke-width: 9; stroke-linecap: round; stroke-linejoin: bevel; stroke:#1b7; fill: none;"/></svg>