<svg xmlns="http://www.w3.org/2000/svg" baseProfile="full" version="1.1" width="480px" height="600px" style="fill: none; width: 480px; height: 600px;"><path d="" style="stroke-width: 15; stroke-linecap: round; stroke-linejoin: round; stroke: rgb(106, 106, 106); fill: none;"/><path d="" style="stroke-width: 10; stroke-linecap: round; stroke-linejoin: miter; stroke: rgb(74, 74, 74); fill: none;"/><path d="M330,300 A90,90 0 0,1 240,390 A90,90 0 0,1 150,300 L150,300 A90,90 0 0,1 240,210 M240,480 L240,480 M240,390 L240,450 M180,240 L180,240 L150,210 L120,210 A30,30 0 0,1 90,180 L90,180 A30,30 0 0,1 120,150 M240,480 L240,480 L240,480 L240,480 L240,480 M240,465 L240,480 M240,495 L240,495 L240,480 M255,480 L225,480 M150,300 A90,90 0 0,0 240,390 A90,90 0 0,0 330,300 L330,300 A90,90 0 0,0 240,210 M240,480 L240,480 M240,390 L240,450 M300,240 L300,240 L330,210 L360,210 A30,30 0 0,0 390,180 L390,180 A30,30 0 0,0 360,150 M240,480 L240,480 L240,480 L240,480 L240,480 M240,465 L240,480 M240,495 L240,495 L240,480 M225,480 L255,480 " style="stroke-width: 31; stroke-linecap: butt; stroke-linejoin: miter; stroke: rgb(10, 10, 10); fill: currentcolour;"/></svg>